<?xml version="1.0" encoding="utf-8"?>
<!-- Generator: Adobe Illustrator 16.0.0, SVG Export Plug-In . SVG Version: 6.00 Build 0)  -->
<!DOCTYPE svg PUBLIC "-//W3C//DTD SVG 1.1//EN" "http://www.w3.org/Graphics/SVG/1.1/DTD/svg11.dtd">
<svg version="1.1" id="Layer_1" xmlns="http://www.w3.org/2000/svg" xmlns:xlink="http://www.w3.org/1999/xlink" x="0px" y="0px"
	 width="392.98px" height="394.48px" viewBox="255.543 64.742 392.98 394.48" enable-background="new 255.543 64.742 392.98 394.48"
	 xml:space="preserve">
<g>
	<path fill="#FFFFFF" d="M627.403,261.416c0-0.952-0.476-1.905-1.429-1.905l0,0l-15.715-5.714c-3.334-0.953-4.763-0.477-4.763-0.477
		h-41.907c-4.286,0-4.763-0.952-4.763-0.952l-15.239-24.288h11.905c0.477,0,1.429-0.476,1.429-1.429v-3.81
		c0-0.477-0.476-1.429-1.429-1.429h-16.191l-12.857-19.525h13.81c0.477,0,1.43-0.476,1.43-1.429v-3.81
		c0-0.476-0.477-1.429-1.43-1.429h-18.096l-19.049-29.05c-0.953-1.429-2.857-1.429-2.857-1.429h-0.477h-6.667
		c-1.905,0-0.952,1.905-0.952,1.905l21.43,66.195c1.429,4.286,1.904,9.524,1.904,9.524v11.43h-14.286c0,0-27.621,0-47.146,4.286
		l-23.812-28.098c0,0-0.952-0.952-2.381-0.952h-5.715l11.43,32.383L422.15,293.8h5.239c1.904,0,2.381-0.953,2.381-0.953
		l23.812-28.097c19.524,4.286,47.146,4.286,47.146,4.286h14.287v11.429c0,0,0,5.238-1.905,9.524l-21.43,65.72
		c0,0-0.952,1.904,0.952,1.904h6.667h0.477c0,0,1.429,0,2.857-1.429l19.049-29.05h18.097c0.476,0,1.429-0.476,1.429-1.429v-3.81
		c0-0.477-0.477-1.429-1.429-1.429h-13.811l12.858-19.525h16.191c0.476,0,1.429-0.476,1.429-1.429v-3.81
		c0-0.476-0.477-1.429-1.429-1.429h-11.906l16.192-24.287c0,0,0.476-0.952,4.762-0.952l0,0h41.432c0,0,1.429,0.476,4.763-0.477
		l15.715-5.715l0,0C626.927,263.321,627.403,262.368,627.403,261.416L627.403,261.416L627.403,261.416z"/>
	<path fill="#FFFFFF" d="M321.712,261.416c0-11.905-9.524-21.43-21.43-21.43c-11.906,0-21.431,9.524-21.431,21.43
		s9.524,21.43,21.431,21.43C312.187,282.845,321.712,273.321,321.712,261.416z M290.281,261.416c0-5.715,4.762-10.001,10.001-10.001
		c5.714,0,10,4.763,10,10.001c0,5.715-4.762,10.001-10,10.001C295.043,271.417,290.281,267.131,290.281,261.416z"/>
	<path fill="#FFFFFF" d="M402.625,264.75h-12.858v-6.667h12.858V264.75z M376.909,264.75h-12.858v-6.667h12.858V264.75z
		 M351.192,264.75h-12.857v-6.667h12.857V264.75z"/>
</g>
</svg>
